<svg width="743" height="743" viewBox="0 0 743 743" fill="none" xmlns="http://www.w3.org/2000/svg">
<g clip-path="url(#clip0_550_233)">
<path d="M662.528 416.229L425.754 371.217L662.578 326.193C680.27 321.469 696.992 312.165 710.871 298.287C752.958 256.2 752.958 187.962 710.871 145.875C688.08 123.083 657.623 112.743 627.8 114.637C629.693 84.815 619.354 54.3576 596.561 31.5653C554.474 -10.5218 486.237 -10.5218 444.15 31.5653C430.258 45.4585 420.951 62.1996 416.23 79.9079L371.219 316.687L326.196 79.863C321.472 62.1706 312.168 45.4483 298.289 31.5696C256.202 -10.5174 187.965 -10.5174 145.878 31.5696C123.088 54.3605 112.746 84.8165 114.641 114.64C84.8192 112.746 54.3632 123.085 31.5709 145.878C-10.5162 187.965 -10.5162 256.202 31.5709 298.29C45.4626 312.181 62.2052 321.488 79.9135 326.209L316.688 371.221L79.8628 416.243C62.1704 420.967 45.4481 430.271 31.5694 444.15C-10.5176 486.237 -10.5176 554.475 31.5694 596.562C54.3617 619.352 84.8177 629.693 114.64 627.799C112.746 657.621 123.085 688.079 145.878 710.871C187.965 752.958 256.202 752.958 298.289 710.871C312.181 696.978 321.488 680.237 326.209 662.527L371.219 425.753L416.243 662.576C420.967 680.269 430.271 696.991 444.15 710.87C486.237 752.957 554.474 752.957 596.561 710.87C619.354 688.079 629.693 657.621 627.8 627.799C657.623 629.692 688.079 619.352 710.871 596.56C752.958 554.473 752.958 486.235 710.871 444.148C696.979 430.257 680.238 420.952 662.528 416.229Z" fill="#A5EB78"/>
<path d="M721.238 157.842C697.892 126.728 662.418 112.442 627.799 114.64L424.462 317.977C415.821 326.618 402.813 329.108 391.595 324.263C390.681 323.87 389.755 323.5 388.814 323.16C378.34 319.353 370.148 311.057 368.067 300.109L326.196 79.8628C320.123 57.1299 306.494 35.9951 285.31 20.4401C247.77 -7.12297 195.095 -6.7503 157.844 21.2014C126.73 44.5476 112.443 80.0208 114.642 114.64L317.979 317.977C326.62 326.618 329.11 339.625 324.268 350.844C323.875 351.758 323.505 352.685 323.164 353.626C319.358 364.1 311.062 372.291 300.114 374.372L79.8632 416.243C57.1376 422.312 36.0114 435.935 20.455 457.109C-7.1168 494.637 -6.75718 547.307 21.1785 584.564C44.5233 615.7 80.0082 629.996 114.642 627.798L317.979 424.461C326.62 415.82 339.627 413.33 350.845 418.172C351.758 418.564 352.685 418.934 353.626 419.275C364.1 423.081 372.291 431.377 374.372 442.325L416.245 662.572C422.313 685.297 435.937 706.424 457.111 721.98C494.639 749.55 547.308 749.192 584.565 721.256C615.701 697.912 629.998 662.427 627.799 627.793L424.462 424.462C415.821 415.821 413.331 402.812 418.176 391.595C418.569 390.681 418.939 389.754 419.28 388.813C423.086 378.339 431.382 370.148 442.33 368.067L662.576 326.195C685.309 320.122 706.444 306.492 721.999 285.308C749.564 247.769 749.19 195.093 721.238 157.842Z" fill="#8CD76E"/>
</g>
<defs>
<clipPath id="clip0_550_233">
<rect width="742.439" height="742.439" fill="white"/>
</clipPath>
</defs>
</svg>
