<svg width="743" height="743" viewBox="0 0 743 743" fill="none" xmlns="http://www.w3.org/2000/svg">
<g clip-path="url(#clip0_550_236)">
<path d="M524.828 140.807H217.612V601.631H524.828V140.807Z" fill="#FF6464"/>
<path d="M524.828 0H217.612V140.807H524.828V0Z" fill="#FFB1B1"/>
<path d="M524.828 601.633H217.612V742.439H524.828V601.633Z" fill="#D2555A"/>
<path d="M665.635 140.807H524.828V601.631H665.635V140.807Z" fill="#FFB1B1"/>
<path d="M524.828 0L665.635 140.807H524.828V0Z" fill="#FFD8D8"/>
<path d="M665.635 601.633L524.828 742.439V601.633H665.635Z" fill="#FF8B8B"/>
<path d="M217.612 140.807H76.8048V601.631H217.612V140.807Z" fill="#D2555A"/>
<path d="M217.612 742.439L76.8048 601.633H217.612V742.439Z" fill="#FF6464"/>
<path d="M76.8048 140.807L217.612 0V140.807H76.8048Z" fill="#FF8B8B"/>
<path d="M566.715 144.035C541.627 138.314 521.878 118.566 516.161 93.4778C515.73 91.5883 513.229 91.5883 512.798 93.4778C507.079 118.566 487.329 138.314 462.244 144.035C460.354 144.465 460.354 146.967 462.244 147.397C487.332 153.117 507.08 172.864 512.798 197.951C513.229 199.841 515.73 199.841 516.161 197.951C521.88 172.864 541.63 153.115 566.715 147.397C568.603 146.968 568.603 144.465 566.715 144.035Z" fill="white"/>
<path d="M495.284 223.448C475.592 218.347 460.086 202.844 454.988 183.152C454.476 181.174 451.915 181.174 451.403 183.152C446.303 202.844 430.799 218.35 411.107 223.448C409.129 223.96 409.129 226.521 411.107 227.033C430.799 232.133 446.305 247.637 451.403 267.329C451.915 269.307 454.476 269.307 454.988 267.329C460.089 247.635 475.592 232.131 495.284 227.033C497.263 226.521 497.263 223.96 495.284 223.448Z" fill="white"/>
</g>
<defs>
<clipPath id="clip0_550_236">
<rect width="742.439" height="742.439" fill="white"/>
</clipPath>
</defs>
</svg>
