<svg width="743" height="743" viewBox="0 0 743 743" fill="none" xmlns="http://www.w3.org/2000/svg">
<g clip-path="url(#clip0_550_218)">
<path d="M81.2117 713.2L23.7857 655.774C-7.9289 624.06 -7.9289 572.638 23.7857 540.922L196.064 368.644L368.341 540.922L196.064 713.2C164.347 744.916 112.926 744.916 81.2117 713.2Z" fill="#95673F"/>
<path d="M52.4985 684.487L81.2115 713.2C112.928 744.916 164.349 744.915 196.063 713.2L368.341 540.922L282.202 454.783L52.4985 684.487Z" fill="#875334"/>
<path d="M730.238 22.1354C728.975 18.3464 726.909 15.1301 724.382 12.6041C715.308 3.53094 699.919 2.61159 689.926 12.6041C640.885 61.6457 618.145 84.3858 571.053 60.7263C544.523 47.519 511.792 53.6079 488.934 75.7738L247.746 316.962L420.023 489.24C420.023 489.24 667.989 241.274 670.975 238.288L689.925 219.339C741.265 167.999 755.507 97.9397 730.238 22.1354Z" fill="#E6EBF0"/>
<path d="M689.926 219.337L670.977 238.287C667.99 241.274 420.025 489.239 420.025 489.239L333.886 403.1L724.382 12.6055C726.908 15.1315 728.975 18.3478 730.238 22.1369C755.507 97.9396 741.265 167.999 689.926 219.337Z" fill="#D1DAE4"/>
<path d="M339.628 431.814L305.173 397.359L517.649 184.883C527.164 175.368 542.588 175.368 552.104 184.883C561.619 194.399 561.619 209.823 552.104 219.339L339.628 431.814Z" fill="#C9D0D7"/>
<path d="M207.55 701.715L109.926 604.092C100.411 594.576 100.411 579.152 109.926 569.637C119.441 560.121 134.866 560.121 144.381 569.637L242.005 667.26L207.55 701.715Z" fill="#6E6057"/>
<path d="M276.46 632.803L178.837 535.18C169.321 525.665 169.321 510.24 178.837 500.725C188.352 491.209 203.776 491.209 213.292 500.725L310.915 598.348L276.46 632.803Z" fill="#6E6057"/>
<path d="M339.628 431.814L552.105 219.337C561.621 209.822 561.618 194.396 552.105 184.882L322.4 414.586L339.628 431.814Z" fill="#B8C2C9"/>
<path d="M242.004 667.256L155.866 581.119L121.412 615.573L207.549 701.711L242.004 667.256Z" fill="#615349"/>
<path d="M310.918 598.344L224.78 512.207L190.325 546.662L276.463 632.799L310.918 598.344Z" fill="#615349"/>
<path d="M328.144 546.664L178.835 397.357C150.29 368.813 150.29 322.535 178.835 293.99C207.38 265.445 253.658 265.445 282.202 293.99L431.51 443.297C460.054 471.842 460.054 518.12 431.51 546.664C402.966 575.209 356.687 575.209 328.144 546.664Z" fill="#6E6057"/>
<path d="M431.51 443.299L362.599 374.388L259.232 477.755L328.142 546.666C356.687 575.211 402.965 575.211 431.51 546.666C460.054 518.121 460.054 471.843 431.51 443.299Z" fill="#615349"/>
</g>
<defs>
<clipPath id="clip0_550_218">
<rect width="742.439" height="742.439" fill="white"/>
</clipPath>
</defs>
</svg>
