<svg width="857" height="750" viewBox="0 0 857 750" fill="none" xmlns="http://www.w3.org/2000/svg">
<path d="M856.556 59.1197V690.828C856.556 692.845 856.437 694.865 856.32 696.883C856.203 698.757 855.965 700.632 855.612 702.363C850.896 729.327 830.62 749.657 806.337 749.657H50.2189C47.2712 749.657 44.3251 749.368 41.4961 748.791C20.1592 744.322 3.41953 724.135 0.471775 698.612C0.352995 697.603 0.235887 696.449 0.235887 695.44C0 693.854 0 692.414 0 690.828V59.1197C0 55.2256 0.354668 51.3335 0.94355 47.5827C5.54085 20.4754 25.9342 0.000152588 50.2189 0.000152588H806.337C808.105 0.000152588 809.991 0.14544 811.759 0.28868C813.527 0.577208 815.179 0.865736 816.945 1.2975C836.75 6.34367 852.193 25.233 855.729 48.7368C855.965 50.1774 856.201 51.62 856.318 53.0627C856.437 55.0824 856.556 57.1 856.556 59.1197Z" fill="#85807B"/>
<path d="M134.036 0.000152588V749.802H48.2147C46.0934 749.802 43.9704 749.657 41.8491 749.225C20.2763 745.765 3.30075 724.856 0.471775 698.614C0.352995 697.605 0.235887 696.451 0.235887 695.442C0 693.854 0 692.414 0 690.828V59.1197C0 55.2256 0.354668 51.3336 0.94355 47.5827C5.30496 20.4754 24.7565 0.000152588 48.2147 0.000152588H134.036Z" fill="#C0BDA6"/>
<path d="M856.556 59.1196V690.828C856.556 692.845 856.437 694.865 856.32 696.883C853.844 726.442 833.332 749.802 808.341 749.802H722.521V0H808.341C811.17 0 813.999 0.288528 816.594 0.865584C836.634 5.19146 852.313 24.5126 855.85 48.8819C856.086 50.3246 856.203 51.6219 856.322 53.0625C856.437 55.0822 856.556 57.0999 856.556 59.1196Z" fill="#C0BDA6"/>
<path d="M413.097 59.1483V700.044H104.953C95.0826 700.044 86.0435 695.649 79.084 688.434C70.4248 679.461 64.9023 666.045 64.9023 651.058V108.135C64.9023 81.0744 82.8281 59.1483 104.953 59.1483H413.097Z" fill="white"/>
<path d="M425.516 59.1483V700.044H733.66C743.53 700.044 752.569 695.649 759.527 688.434C768.186 679.461 773.709 666.045 773.709 651.058V108.135C773.709 81.0744 755.783 59.1483 733.658 59.1483H425.516Z" fill="white"/>
<path d="M679.255 0V186.585L625.382 150.826L571.391 186.585V0H679.255Z" fill="#E05879"/>
<path d="M648.534 74.8351H630.026V74.6919L624.957 55.514L624.249 52.6307H624.013L623.305 55.514L618.119 74.8351H599.611V75.1236L614.583 88.6783L612.697 95.8874L608.689 110.883L608.925 111.028L624.132 97.1848L639.222 111.028L639.458 110.883L633.564 88.6783L648.535 75.1236V74.8351H648.534Z" fill="#FDF5DB"/>
<path d="M365.876 154.811H122.424V303.124H365.876V154.811Z" fill="#D8D8D8"/>
<path d="M544.102 210.284H473.135V295.305H544.102V210.284Z" fill="#D8D8D8"/>
<path d="M632.59 210.284H561.623V295.305H632.59V210.284Z" fill="#D8D8D8"/>
<path d="M721.08 211.286H650.113V296.308H721.08V211.286Z" fill="#D8D8D8"/>
<path d="M365.876 349.817H122.424V363.695H365.876V349.817Z" fill="#D8D8D8"/>
<path d="M365.876 423.829H122.424V437.707H365.876V423.829Z" fill="#D8D8D8"/>
<path d="M365.876 511.72H122.424V525.598H365.876V511.72Z" fill="#D8D8D8"/>
<path d="M365.876 581.107H122.424V594.985H365.876V581.107Z" fill="#D8D8D8"/>
<path d="M717.587 349.817H474.135V363.695H717.587V349.817Z" fill="#D8D8D8"/>
<path d="M717.587 423.829H474.135V437.707H717.587V423.829Z" fill="#D8D8D8"/>
<path d="M717.587 511.72H474.135V525.598H717.587V511.72Z" fill="#D8D8D8"/>
<path d="M717.587 581.107H474.135V594.985H717.587V581.107Z" fill="#D8D8D8"/>
<path opacity="0.03" d="M849.6 58.9743V690.682C849.6 691.548 849.365 692.123 849.365 692.989C848.423 723.413 828.617 748.214 803.862 749.657C803.037 749.802 802.211 749.802 801.386 749.802H715.447V749.657H82.4023L134.037 686.5L208.895 594.938L220.211 581.095L265.597 525.581L276.912 511.738L337.388 437.766L348.823 423.78L425.567 329.91L477.318 266.61L523.412 210.23L613.947 99.491L631.276 78.4387V78.2934L646.955 59.1155L679.256 19.6097L695.288 0H801.386C807.751 0 813.764 1.58588 819.422 4.32587C831.328 10.2376 840.878 21.9179 845.711 36.4814C847.832 42.6817 849.13 49.459 849.365 56.5228C849.365 57.3884 849.6 58.254 849.6 58.9743Z" fill="#040000"/>
</svg>
