<svg width="743" height="743" viewBox="0 0 743 743" fill="none" xmlns="http://www.w3.org/2000/svg">
<g clip-path="url(#clip0_550_274)">
<path d="M742.429 371.22C742.429 576.227 576.239 742.439 371.22 742.439C166.198 742.439 0 576.227 0 371.22C0 166.192 166.198 0 371.22 0C576.237 0 742.429 166.192 742.429 371.22Z" fill="#F2BC3E"/>
<path d="M655.178 463.324C625.536 554.575 552.82 626.825 461.297 655.832C451.221 659.032 445.641 669.796 448.84 679.863C452.03 689.931 462.794 695.509 472.861 692.309C576.248 659.489 658.035 578.221 691.572 475.145C694.845 465.099 689.338 454.303 679.292 451.031C669.244 447.771 658.45 453.277 655.178 463.324Z" fill="#C89329"/>
<path d="M371.22 0C166.198 0 0 166.192 0 371.22C0 491.293 57.0591 597.983 145.485 665.838L665.836 145.486C597.983 57.0591 491.292 0 371.22 0Z" fill="#ECC984"/>
<path d="M288.633 44.6856C171.064 74.4614 78.1185 165.963 46.2531 282.691C43.4689 292.884 49.4795 303.418 59.6764 306.191C69.869 308.977 80.3937 302.96 83.1778 292.768C111.318 189.444 193.962 108.081 298.014 81.7872C308.269 79.1887 314.471 68.7786 311.874 58.5454C309.288 48.2905 298.877 42.087 288.633 44.6856Z" fill="#F2F2F2"/>
<path d="M371.22 257.661L403.614 338.618L490.606 344.414L423.624 400.239L445.007 484.756L371.22 438.316L297.433 484.756L318.804 400.239L251.822 344.414L338.825 338.618L371.22 257.661Z" fill="#E43E10"/>
</g>
<defs>
<clipPath id="clip0_550_274">
<rect width="742.439" height="742.439" fill="white"/>
</clipPath>
</defs>
</svg>
