<svg width="84" height="101" viewBox="0 0 84 101" fill="none" xmlns="http://www.w3.org/2000/svg">
<path d="M0 5C0 2.23857 2.23858 0 5 0H78.5C81.2614 0 83.5 2.23858 83.5 5V17.5C83.5 20.2614 81.2614 22.5 78.5 22.5H61.5H27.5C24.7386 22.5 22.5 24.7386 22.5 27.5V74.5C22.5 77.2614 24.7386 79.5 27.5 79.5H49.5C52.2614 79.5 54.5 81.7386 54.5 84.5V96C54.5 98.7614 52.2614 101 49.5 101H5C2.23858 101 0 98.7614 0 96V5Z" fill="black"/>
<path d="M32.8799 56C32.8799 53.2386 35.1185 51 37.8799 51H77.8799C80.6413 51 82.8799 53.2386 82.8799 56V96C82.8799 98.7614 80.6413 101 77.8799 101H69.4183H59.3799C56.6185 101 54.3799 98.7614 54.3799 96V84.6356C54.3799 81.8742 56.6185 79.6356 59.3799 79.6356H64.4183C67.1798 79.6356 69.4183 77.397 69.4183 74.6356V71.4167C69.4183 68.6552 67.1798 66.4167 64.4183 66.4167L37.8799 66.4167C35.1185 66.4167 32.8799 64.1781 32.8799 61.4167V56Z" fill="black"/>
</svg>
