<svg width="743" height="743" viewBox="0 0 743 743" fill="none" xmlns="http://www.w3.org/2000/svg">
<path d="M574.382 361.137C601.988 361.137 624.401 383.528 624.401 411.157C624.401 438.786 601.988 461.177 574.382 461.177C546.753 461.177 524.339 438.786 524.339 411.157C524.339 383.528 546.753 361.137 574.382 361.137Z" fill="#5FCEFF"/>
<path d="M371.567 69.0844C539.382 69.0844 675.395 205.121 675.395 372.889C675.395 540.68 539.382 676.716 371.567 676.716C203.799 676.716 67.74 540.68 67.74 372.889C67.74 205.121 203.799 69.0844 371.567 69.0844ZM624.401 411.157C624.401 383.528 601.988 361.137 574.382 361.137C546.753 361.137 524.339 383.528 524.339 411.157C524.339 438.786 546.753 461.177 574.382 461.177C601.988 461.177 624.401 438.786 624.401 411.157ZM554.865 529.369C554.865 501.739 532.451 479.349 504.845 479.349C477.216 479.349 454.802 501.739 454.802 529.369C454.802 556.998 477.216 579.388 504.845 579.388C532.451 579.388 554.865 556.998 554.865 529.369ZM485.329 411.157C485.329 383.528 462.915 361.137 435.309 361.137C407.68 361.137 385.266 383.528 385.266 411.157C385.266 438.786 407.68 461.177 435.309 461.177C462.915 461.177 485.329 438.786 485.329 411.157Z" fill="#8B87C1"/>
<path d="M504.845 479.349C532.451 479.349 554.865 501.739 554.865 529.368C554.865 556.998 532.451 579.388 504.845 579.388C477.216 579.388 454.802 556.998 454.802 529.368C454.802 501.739 477.216 479.349 504.845 479.349Z" fill="#FF4893"/>
<path d="M435.309 361.137C462.915 361.137 485.329 383.528 485.329 411.157C485.329 438.786 462.915 461.177 435.309 461.177C407.68 461.177 385.266 438.786 385.266 411.157C385.266 383.528 407.68 361.137 435.309 361.137Z" fill="#FFB578"/>
<path d="M371.567 692.941C195.089 692.941 51.5148 549.367 51.5148 372.889C51.5148 196.424 195.089 52.8593 371.567 52.8593C548.046 52.8593 691.622 196.424 691.622 372.889C691.62 549.365 548.046 692.941 371.567 692.941ZM371.567 85.3095C212.983 85.3095 83.9651 214.318 83.9651 372.889C83.9651 531.473 212.983 660.491 371.567 660.491C530.152 660.491 659.172 531.473 659.172 372.889C659.17 214.318 530.152 85.3095 371.567 85.3095Z" fill="#4F46A3"/>
<path d="M435.309 477.402C398.768 477.402 369.039 447.686 369.039 411.159C369.039 374.629 398.768 344.912 435.309 344.912C471.836 344.912 501.554 374.629 501.554 411.159C501.554 447.684 471.836 477.402 435.309 477.402ZM435.309 377.362C416.662 377.362 401.489 392.521 401.489 411.157C401.489 429.79 416.662 444.949 435.309 444.949C453.942 444.949 469.104 429.79 469.104 411.157C469.104 392.521 453.942 377.362 435.309 377.362ZM574.382 477.402C537.84 477.402 508.111 447.686 508.111 411.159C508.111 374.629 537.84 344.912 574.382 344.912C610.909 344.912 640.627 374.629 640.627 411.159C640.627 447.684 610.909 477.402 574.382 477.402ZM574.382 377.362C555.734 377.362 540.562 392.521 540.562 411.157C540.562 429.79 555.734 444.949 574.382 444.949C593.015 444.949 608.176 429.79 608.176 411.157C608.176 392.521 593.015 377.362 574.382 377.362ZM504.845 595.613C468.304 595.613 438.575 565.898 438.575 529.371C438.575 492.843 468.304 463.126 504.845 463.126C541.373 463.126 571.09 492.843 571.09 529.371C571.09 565.898 541.373 595.613 504.845 595.613ZM504.845 495.574C486.198 495.574 471.025 510.735 471.025 529.368C471.025 548.002 486.198 563.161 504.845 563.161C523.479 563.161 538.64 548.002 538.64 529.368C538.64 510.735 523.479 495.574 504.845 495.574ZM124.713 390.458C120.41 390.458 116.283 388.749 113.241 385.706C110.198 382.663 108.488 378.536 108.488 374.233C108.488 224.058 230.664 101.882 380.839 101.882C385.142 101.882 389.269 103.592 392.312 106.635C395.355 109.677 397.064 113.804 397.064 118.107C397.064 122.411 395.355 126.538 392.312 129.58C389.269 132.623 385.142 134.333 380.839 134.333C248.558 134.333 140.939 241.952 140.939 374.233C140.939 378.536 139.229 382.663 136.186 385.706C133.144 388.749 129.017 390.458 124.713 390.458ZM177.063 545.594C174.562 545.598 172.095 545.023 169.853 543.914C167.612 542.805 165.658 541.192 164.145 539.201C144.684 513.663 130.04 485.28 120.618 454.846C119.988 452.811 119.764 450.671 119.961 448.55C120.158 446.428 120.77 444.366 121.764 442.481C123.771 438.674 127.207 435.82 131.318 434.548C135.429 433.275 139.877 433.687 143.684 435.694C147.491 437.701 150.344 441.137 151.617 445.248C159.91 472.038 172.812 497.029 189.957 519.534C191.789 521.938 192.914 524.806 193.203 527.815C193.492 530.825 192.935 533.855 191.595 536.564C190.254 539.273 188.183 541.554 185.616 543.15C183.048 544.745 180.086 545.592 177.063 545.594Z" fill="#4F46A3"/>
</svg>
