<svg width="743" height="743" viewBox="0 0 743 743" fill="none" xmlns="http://www.w3.org/2000/svg">
<path d="M539.521 476.034V559.941H204.031V476.034H462.984H539.521Z" fill="#FF4893"/>
<path d="M417.508 476.034H280.568V29.4486L462.984 197.193V476.034H417.508Z" fill="#5FCEFF"/>
<path d="M324.074 609.984V559.941H417.508V710.905H324.074V660.699V609.984Z" fill="#FFB578"/>
<path d="M462.984 492.259C460.854 492.259 458.744 491.84 456.775 491.024C454.807 490.209 453.018 489.014 451.511 487.507C450.005 486 448.81 484.212 447.994 482.243C447.179 480.275 446.759 478.165 446.759 476.034V204.316L296.793 66.4119V476.034C296.793 480.337 295.083 484.464 292.04 487.507C288.998 490.55 284.871 492.259 280.567 492.259C276.264 492.259 272.137 490.55 269.095 487.507C266.052 484.464 264.342 480.337 264.342 476.034V29.4487C264.342 26.2971 265.259 23.2135 266.982 20.5747C268.706 17.9359 271.16 15.8561 274.046 14.5893C276.932 13.3225 280.124 12.9237 283.233 13.4414C286.342 13.9591 289.232 15.371 291.552 17.5047L473.969 185.249C475.621 186.769 476.941 188.616 477.843 190.672C478.746 192.727 479.212 194.948 479.212 197.194V476.034C479.211 480.338 477.501 484.464 474.458 487.507C471.415 490.55 467.288 492.259 462.984 492.259Z" fill="#4F46A3"/>
<path d="M539.521 576.166H417.505C413.202 576.166 409.075 574.457 406.032 571.414C402.99 568.371 401.28 564.244 401.28 559.941C401.28 555.638 402.99 551.511 406.032 548.468C409.075 545.426 413.202 543.716 417.505 543.716H523.296V492.259H220.256V543.716H324.074C328.377 543.716 332.504 545.426 335.547 548.468C338.59 551.511 340.299 555.638 340.299 559.941C340.299 564.244 338.59 568.371 335.547 571.414C332.504 574.457 328.377 576.166 324.074 576.166H204.031C199.728 576.166 195.601 574.457 192.558 571.414C189.515 568.371 187.806 564.244 187.806 559.941V476.034C187.806 471.731 189.515 467.604 192.558 464.561C195.601 461.518 199.728 459.809 204.031 459.809H539.521C543.824 459.809 547.951 461.518 550.994 464.561C554.036 467.604 555.746 471.731 555.746 476.034V559.941C555.746 564.244 554.036 568.371 550.994 571.414C547.951 574.457 543.824 576.166 539.521 576.166Z" fill="#4F46A3"/>
<path d="M417.508 727.13H324.074C321.943 727.13 319.834 726.71 317.865 725.895C315.896 725.079 314.108 723.884 312.601 722.378C311.095 720.871 309.899 719.082 309.084 717.114C308.269 715.145 307.849 713.035 307.849 710.905V559.941C307.849 557.811 308.269 555.701 309.084 553.732C309.899 551.764 311.095 549.975 312.601 548.468C314.108 546.962 315.896 545.767 317.865 544.951C319.834 544.136 321.943 543.716 324.074 543.716H417.508C421.811 543.716 425.938 545.426 428.981 548.468C432.023 551.511 433.733 555.638 433.733 559.941V710.905C433.733 713.035 433.313 715.145 432.498 717.114C431.682 719.082 430.487 720.871 428.981 722.378C427.474 723.884 425.685 725.079 423.717 725.895C421.748 726.71 419.638 727.13 417.508 727.13ZM340.299 694.679H401.283V576.166H340.299V694.679ZM417.508 492.259C415.377 492.259 413.267 491.84 411.299 491.024C409.33 490.209 407.541 489.014 406.035 487.507C404.528 486 403.333 484.212 402.518 482.243C401.702 480.275 401.283 478.165 401.283 476.034V238.938C401.283 236.808 401.702 234.698 402.518 232.729C403.333 230.761 404.528 228.972 406.035 227.465C407.541 225.959 409.33 224.764 411.299 223.948C413.267 223.133 415.377 222.713 417.508 222.713C419.638 222.713 421.748 223.133 423.717 223.948C425.685 224.764 427.474 225.959 428.981 227.465C430.487 228.972 431.682 230.761 432.498 232.729C433.313 234.698 433.733 236.808 433.733 238.938V476.034C433.733 478.165 433.313 480.275 432.498 482.243C431.682 484.212 430.487 486 428.981 487.507C427.474 489.014 425.685 490.209 423.717 491.024C421.748 491.84 419.638 492.259 417.508 492.259Z" fill="#4F46A3"/>
<path d="M370.478 626.209H324.074C321.943 626.209 319.834 625.79 317.865 624.974C315.896 624.159 314.108 622.964 312.601 621.457C311.095 619.951 309.899 618.162 309.084 616.193C308.269 614.225 307.849 612.115 307.849 609.984C307.849 607.854 308.269 605.744 309.084 603.775C309.899 601.807 311.095 600.018 312.601 598.511C314.108 597.005 315.896 595.81 317.865 594.994C319.834 594.179 321.943 593.759 324.074 593.759H370.478C374.781 593.759 378.908 595.469 381.951 598.511C384.994 601.554 386.703 605.681 386.703 609.984C386.703 614.287 384.994 618.414 381.951 621.457C378.908 624.5 374.781 626.209 370.478 626.209ZM370.478 676.925H324.074C319.771 676.925 315.644 675.215 312.601 672.172C309.558 669.13 307.849 665.003 307.849 660.699C307.849 656.396 309.558 652.269 312.601 649.227C315.644 646.184 319.771 644.474 324.074 644.474H370.478C374.781 644.474 378.908 646.184 381.951 649.227C384.994 652.269 386.703 656.396 386.703 660.699C386.703 665.003 384.994 669.13 381.951 672.172C378.908 675.215 374.781 676.925 370.478 676.925Z" fill="#4F46A3"/>
</svg>
