<svg width="800" height="800" viewBox="0 0 800 800" fill="none" xmlns="http://www.w3.org/2000/svg">
<path d="M591.494 288.511L585.811 294.194L407.847 472.158L271.134 608.869L243.178 636.939L226.245 653.758L196.927 683.191L179.994 700.009L150.674 729.33L133.741 746.263L104.761 775.242L88.7392 791.266C84.3064 795.698 78.8532 798.425 73.0564 799.561C63.7376 801.152 53.7376 798.425 46.4642 791.266L10.7814 755.469L8.73604 753.422C1.57667 746.263 -1.15146 736.262 0.439167 726.944C1.57667 721.148 4.30323 715.694 8.73604 711.259L23.3954 696.6L53.7376 666.256L99.9907 620.003L116.924 603.184L146.244 573.752L163.177 556.933L191.247 528.75L327.845 392.152L505.809 214.188L511.492 208.505C523.084 196.912 542.063 196.912 553.653 208.505L555.7 210.552L591.497 246.236C603.085 257.942 603.084 276.919 591.494 288.511Z" fill="#E4D9B2"/>
<path d="M270.339 616.825L246.702 640.462L200.449 686.716L119.875 767.287C115.671 771.492 110.33 774.219 104.761 775.244C95.216 777.289 84.9878 774.675 77.6019 767.287L31.8035 721.489C25.0988 714.784 22.2581 705.466 23.3941 696.602C23.3941 696.373 23.3941 696.261 23.5081 696.033C23.6222 694.669 23.9628 693.192 24.4175 691.942C24.4175 691.828 24.4175 691.828 24.4175 691.828C24.8722 690.352 25.3269 688.987 26.0081 687.623C26.2363 687.17 26.3488 686.828 26.5769 686.487C27.1457 685.237 27.8269 684.216 28.6222 683.078C29.5316 681.714 30.6675 680.464 31.8035 679.214L49.305 661.827L95.5566 615.575L112.377 598.642L141.696 569.322L158.628 552.389L182.266 528.752C184.766 526.364 188.744 526.364 191.244 528.752L270.339 607.847C270.68 608.187 270.908 608.53 271.135 608.869C272.727 611.37 272.385 614.664 270.339 616.825Z" fill="#BF8853"/>
<path d="M406.711 53.2719C344.889 51.4531 282.386 74.1812 235.111 121.458C187.836 168.733 165.108 231.236 166.925 293.172L114.991 259.987C107.036 191.689 129.309 120.548 181.698 68.1594C231.702 18.2703 298.409 -4.23125 363.641 0.654685C366.936 0.768748 370.345 1.10937 373.641 1.45156L389.778 26.6797L406.711 53.2719Z" fill="#E6E4E3"/>
<path d="M472.85 181.347L294.886 359.309L166.925 293.17C165.107 231.234 187.836 168.731 235.111 121.456C282.386 74.1813 344.889 51.4516 406.711 53.2703L472.85 181.347Z" fill="#5B646B"/>
<path d="M246.703 640.461L229.769 657.28L226.247 653.758L169.312 596.937L146.242 573.753L141.697 569.322L158.63 552.389L246.703 640.461Z" fill="#897B57"/>
<path opacity="0.07" d="M555.697 210.553L528.877 237.372L350.913 415.336L214.428 551.933L186.245 580.003L139.992 626.255L123.174 643.188L93.8532 672.508L76.9204 689.441L38.2814 727.966L19.8704 746.377L10.7814 755.469L8.73604 753.422C1.57667 746.263 -1.15146 736.262 0.439167 726.944C1.57667 721.148 4.30323 715.694 8.73604 711.259L23.3954 696.6C23.3954 696.372 23.3954 696.259 23.5095 696.031C23.6235 694.667 23.9642 693.191 24.4189 691.941C24.4189 691.827 24.4189 691.827 24.4189 691.827C24.8735 690.35 25.3282 688.986 26.0095 687.622C26.2376 687.169 26.3501 686.827 26.5782 686.486C27.147 685.236 27.8282 684.214 28.6235 683.077C29.5329 681.712 30.6689 680.463 31.8048 679.213L49.3064 661.825L95.5579 615.573L112.378 598.641L141.697 569.32L158.63 552.388L182.267 528.75C184.767 526.363 188.745 526.363 191.245 528.75L327.844 392.152L505.808 214.188L511.491 208.505C523.083 196.912 542.061 196.912 553.652 208.505L555.697 210.553Z" fill="#040000"/>
<path d="M200.45 686.714L183.517 703.534L99.9894 620.005L95.5581 615.575L112.377 598.642L116.922 603.186L139.992 626.256L196.927 683.191L200.45 686.714Z" fill="#897B57"/>
<path d="M154.197 732.853L137.264 749.787L53.7374 666.258L49.3062 661.827L66.2374 644.894L70.6702 649.327L93.853 672.509L154.197 732.853Z" fill="#897B57"/>
<path d="M607.517 315.9C596.949 351.242 573.197 390.334 538.536 424.997C503.989 459.658 464.896 483.409 429.553 493.866L407.849 472.159L350.914 415.338L327.844 392.155L294.888 359.312L472.852 181.35L505.808 214.191L528.877 237.373L585.811 294.195L607.517 315.9Z" fill="#5B646B"/>
<path opacity="0.07" d="M585.811 294.194L591.494 288.511C603.086 276.919 603.086 257.942 591.494 246.236L555.697 210.552L553.65 208.505C542.06 196.912 523.081 196.912 511.489 208.505L505.806 214.187L472.85 181.347L406.71 53.2719L389.777 26.6781L373.641 1.45C370.345 1.10938 366.936 0.767188 363.641 0.653125C343.628 -0.845312 323.525 0.55 303.76 4.20781V368.152L327.844 392.152L303.76 416.236V576.244L407.849 472.156L429.553 493.862C464.895 483.406 503.989 459.656 538.536 424.994C573.197 390.333 596.949 351.239 607.517 315.897L585.811 294.194Z" fill="#040000"/>
</svg>
