<svg width="743" height="743" viewBox="0 0 743 743" fill="none" xmlns="http://www.w3.org/2000/svg">
<path d="M364.289 397.103L489.819 412.721L568.274 380.477L571.899 570.731L371.607 676.021" fill="#5FCEFF"/>
<path d="M356.154 397.875V672.931L160.316 556.263L162.998 378.713L245.667 412.721" fill="#FFB578"/>
<path d="M716.954 295.599L493.117 412.721L364.289 394.943L588.127 277.798L716.954 295.599Z" fill="#42BC90"/>
<path d="M661.418 204.506L588.127 277.798L364.289 178.477L437.604 105.162L661.418 204.506Z" fill="#FFB578"/>
<path d="M588.127 277.798L364.289 394.943L140.475 277.798L364.289 178.477L588.127 277.798Z" fill="#8B87C1"/>
<path d="M290.998 105.162L364.289 178.477L140.475 277.798L67.1605 204.506L290.998 105.162Z" fill="#5FCEFF"/>
<path d="M364.289 394.943L253.24 412.721L29.4254 295.599L140.475 277.798L364.289 394.943Z" fill="#FF4893"/>
<path d="M364.289 411.166C361.669 411.166 359.087 410.532 356.765 409.316L132.951 292.171C130.248 290.756 127.999 288.607 126.461 285.972C124.924 283.337 124.161 280.322 124.259 277.272C124.358 274.223 125.314 271.263 127.018 268.732C128.723 266.202 131.106 264.203 133.895 262.966L357.709 163.644C359.781 162.725 362.022 162.25 364.289 162.25C366.556 162.25 368.798 162.725 370.87 163.644L594.707 262.966C597.497 264.202 599.882 266.201 601.587 268.731C603.293 271.262 604.249 274.223 604.348 277.273C604.447 280.323 603.683 283.34 602.144 285.975C600.606 288.611 598.355 290.759 595.651 292.173L371.811 409.319C369.49 410.533 366.909 411.167 364.289 411.166ZM177.763 279.001L364.289 376.63L550.834 279.001L364.289 196.227L177.763 279.001ZM364.289 689.847C361.508 689.847 358.773 689.132 356.348 687.77L153.256 573.8C149.524 571.683 146.782 568.175 145.631 564.042C144.479 559.909 145.011 555.488 147.111 551.747C149.21 548.005 152.706 545.248 156.834 544.077C160.961 542.907 165.384 543.419 169.136 545.501L364.484 655.125L559.742 550.946C563.531 549.006 567.93 548.632 571.991 549.905C576.052 551.178 579.451 553.996 581.455 557.751C583.458 561.507 583.906 565.899 582.702 569.981C581.498 574.063 578.738 577.509 575.017 579.576L371.924 687.937C369.575 689.19 366.952 689.846 364.289 689.847Z" fill="#4F46A3"/>
<path d="M364.289 689.847C362.159 689.847 360.049 689.427 358.08 688.612C356.112 687.796 354.323 686.601 352.816 685.095C351.31 683.588 350.115 681.799 349.299 679.831C348.484 677.862 348.064 675.752 348.064 673.622V467.84C348.064 465.71 348.484 463.6 349.299 461.631C350.115 459.663 351.31 457.874 352.816 456.368C354.323 454.861 356.112 453.666 358.08 452.85C360.049 452.035 362.159 451.615 364.289 451.615C366.42 451.615 368.53 452.035 370.498 452.85C372.467 453.666 374.256 454.861 375.762 456.368C377.269 457.874 378.464 459.663 379.279 461.631C380.095 463.6 380.514 465.71 380.514 467.84V673.622C380.514 675.752 380.095 677.862 379.279 679.831C378.464 681.799 377.269 683.588 375.762 685.095C374.256 686.601 372.467 687.796 370.498 688.612C368.53 689.427 366.42 689.847 364.289 689.847ZM161.192 575.877C156.915 575.876 152.812 574.186 149.774 571.175C146.737 568.165 145.011 564.077 144.972 559.8L143.21 368.76C143.171 364.458 144.842 360.315 147.856 357.245C150.871 354.174 154.982 352.427 159.285 352.387H159.438C163.714 352.388 167.818 354.078 170.855 357.088C173.893 360.099 175.619 364.187 175.658 368.464L177.42 559.503C177.459 563.806 175.788 567.948 172.773 571.019C169.759 574.09 165.648 575.837 161.345 575.877H161.192ZM567.384 581.486H567.226C562.923 581.444 558.813 579.695 555.799 576.623C552.786 573.552 551.116 569.409 551.157 565.106L552.941 379.142C552.982 374.866 554.709 370.78 557.747 367.77C560.785 364.761 564.888 363.073 569.164 363.072H569.322C573.625 363.114 577.735 364.863 580.749 367.935C583.762 371.007 585.432 375.15 585.392 379.453L583.607 565.416C583.566 569.692 581.839 573.779 578.801 576.788C575.763 579.797 571.66 581.486 567.384 581.486Z" fill="#4F46A3"/>
<path d="M364.289 484.066C359.986 484.066 355.859 482.356 352.816 479.313C349.774 476.271 348.064 472.144 348.064 467.84V396.705C348.064 394.574 348.484 392.464 349.299 390.496C350.115 388.527 351.31 386.739 352.816 385.232C354.323 383.725 356.112 382.53 358.08 381.715C360.049 380.899 362.159 380.48 364.289 380.48C366.42 380.48 368.53 380.899 370.498 381.715C372.467 382.53 374.256 383.725 375.762 385.232C377.269 386.739 378.464 388.527 379.279 390.496C380.095 392.464 380.514 394.574 380.514 396.705V467.84C380.514 472.144 378.805 476.271 375.762 479.313C372.719 482.356 368.592 484.066 364.289 484.066ZM661.406 220.736C659.141 220.735 656.902 220.258 654.833 219.336L431.019 119.992C427.165 118.195 424.171 114.958 422.679 110.977C421.187 106.995 421.318 102.588 423.043 98.7014C424.768 94.8152 427.949 91.7612 431.902 90.1961C435.855 88.6311 440.264 88.68 444.182 90.3324L667.996 189.677C671.396 191.186 674.175 193.817 675.866 197.131C677.557 200.444 678.059 204.238 677.287 207.877C676.515 211.516 674.516 214.779 671.625 217.12C668.734 219.461 665.126 220.738 661.406 220.736ZM67.1698 220.736C63.4509 220.736 59.845 219.458 56.9554 217.117C54.0659 214.776 52.0679 211.514 51.2958 207.876C50.5237 204.238 51.0243 200.445 52.714 197.133C54.4036 193.82 57.1797 191.188 60.5777 189.677L284.415 90.3324C288.348 88.5865 292.814 88.4746 296.829 90.0212C300.845 91.5678 304.082 94.6463 305.828 98.5794C307.574 102.512 307.686 106.978 306.139 110.994C304.592 115.009 301.514 118.246 297.581 119.992L73.7433 219.336C71.6741 220.257 69.4347 220.734 67.1698 220.736ZM493.131 428.947C489.5 428.95 485.972 427.736 483.113 425.497C480.254 423.259 478.228 420.126 477.36 416.601C476.492 413.075 476.831 409.36 478.324 406.05C479.817 402.74 482.378 400.026 485.595 398.344L709.433 281.221C711.321 280.233 713.385 279.627 715.507 279.437C717.629 279.246 719.768 279.476 721.801 280.113C723.834 280.749 725.722 281.78 727.357 283.146C728.992 284.512 730.342 286.187 731.33 288.075C733.324 291.888 733.723 296.337 732.438 300.443C731.152 304.549 728.288 307.977 724.476 309.972L500.638 427.094C498.323 428.31 495.746 428.946 493.131 428.947ZM253.226 428.947C250.609 428.946 248.032 428.311 245.716 427.094L21.9016 309.972C18.0887 307.977 15.2245 304.549 13.9391 300.442C12.6538 296.335 13.0525 291.886 15.0477 288.073C17.0428 284.26 20.4709 281.396 24.5778 280.11C28.6847 278.825 33.134 279.224 36.947 281.219L260.761 398.341C263.98 400.023 266.542 402.737 268.036 406.047C269.53 409.358 269.87 413.074 269.001 416.6C268.133 420.127 266.107 423.26 263.246 425.499C260.386 427.737 256.858 428.951 253.226 428.947Z" fill="#4F46A3"/>
<path d="M364.289 194.702C362.158 194.704 360.046 194.285 358.077 193.47C356.108 192.654 354.319 191.457 352.813 189.948L279.522 116.633C276.48 113.59 274.772 109.462 274.772 105.159C274.773 100.856 276.482 96.7294 279.524 93.6863C282.568 90.6451 286.695 88.9371 290.998 88.9375C295.301 88.9379 299.428 90.6468 302.471 93.6886L375.763 167.003C378.03 169.273 379.573 172.164 380.198 175.311C380.823 178.458 380.501 181.719 379.273 184.683C378.046 187.647 375.967 190.181 373.3 191.964C370.633 193.747 367.497 194.7 364.289 194.702ZM140.475 294.023C138.344 294.025 136.234 293.607 134.266 292.792C132.297 291.977 130.509 290.781 129.004 289.273L55.6893 215.982C54.1825 214.476 52.9871 212.687 52.1715 210.718C51.3558 208.75 50.9359 206.64 50.9357 204.509C50.9355 202.378 51.355 200.268 52.1702 198.3C52.9854 196.331 54.1804 194.542 55.687 193.035C57.1936 191.528 58.9822 190.333 60.9507 189.517C62.9193 188.702 65.0292 188.282 67.16 188.282C71.4634 188.281 75.5907 189.99 78.634 193.033L151.948 266.324C154.218 268.593 155.763 271.484 156.389 274.632C157.016 277.779 156.694 281.042 155.466 284.007C154.238 286.972 152.158 289.506 149.49 291.289C146.821 293.072 143.684 294.023 140.475 294.023Z" fill="#4F46A3"/>
<path d="M364.289 194.702C361.08 194.703 357.943 193.752 355.274 191.969C352.605 190.187 350.525 187.653 349.297 184.688C348.069 181.723 347.748 178.46 348.374 175.313C349 172.165 350.546 169.274 352.816 167.005L426.128 93.6909C429.171 90.648 433.297 88.9383 437.601 88.9381C441.904 88.9379 446.031 90.6471 449.074 93.6898C452.117 96.7324 453.826 100.859 453.827 105.162C453.827 109.466 452.118 113.593 449.075 116.636L375.76 189.95C374.256 191.459 372.468 192.655 370.499 193.47C368.53 194.286 366.42 194.704 364.289 194.702ZM588.127 294.023C584.918 294.023 581.781 293.071 579.113 291.288C576.446 289.505 574.366 286.972 573.138 284.007C571.91 281.043 571.588 277.781 572.214 274.634C572.84 271.487 574.385 268.596 576.653 266.326L649.942 193.035C652.985 189.992 657.112 188.283 661.415 188.282C665.718 188.282 669.845 189.991 672.888 193.034C675.931 196.077 677.641 200.204 677.641 204.507C677.641 208.81 675.932 212.937 672.889 215.98L599.6 289.271C598.095 290.779 596.306 291.976 594.337 292.791C592.368 293.607 590.258 294.025 588.127 294.023Z" fill="#4F46A3"/>
<path d="M716.975 311.824C716.225 311.824 715.476 311.772 714.734 311.669L585.906 293.867C581.643 293.278 577.789 291.02 575.191 287.59C572.593 284.16 571.464 279.838 572.052 275.575C572.642 271.312 574.9 267.458 578.331 264.86C581.762 262.263 586.084 261.134 590.347 261.723L719.175 279.524C723.242 280.091 726.942 282.178 729.531 285.365C732.12 288.553 733.404 292.603 733.125 296.699C732.846 300.796 731.025 304.634 728.028 307.441C725.031 310.248 721.081 311.814 716.975 311.824ZM493.138 428.946C492.401 428.946 491.652 428.898 490.899 428.793L362.071 411.015C359.96 410.724 357.927 410.02 356.089 408.943C354.25 407.866 352.642 406.437 351.355 404.738C350.069 403.04 349.129 401.104 348.591 399.043C348.053 396.981 347.925 394.833 348.217 392.723C348.508 390.612 349.212 388.579 350.288 386.74C351.365 384.901 352.793 383.292 354.492 382.006C356.19 380.719 358.126 379.779 360.187 379.241C362.249 378.702 364.397 378.575 366.507 378.866L495.335 396.645C499.399 397.215 503.096 399.303 505.682 402.49C508.267 405.676 509.55 409.724 509.272 413.818C508.993 417.912 507.174 421.749 504.181 424.556C501.187 427.363 497.241 428.932 493.138 428.946Z" fill="#4F46A3"/>
<path d="M253.219 428.946C249.144 428.934 245.223 427.389 242.235 424.618C239.247 421.848 237.41 418.055 237.09 413.992C236.77 409.93 237.989 405.896 240.506 402.692C243.023 399.487 246.654 397.347 250.676 396.696L361.726 378.917C365.95 378.293 370.25 379.359 373.694 381.884C377.138 384.408 379.447 388.189 380.122 392.405C380.797 396.622 379.783 400.935 377.299 404.408C374.816 407.882 371.063 410.237 366.855 410.962L255.806 428.74C254.936 428.879 254.069 428.946 253.219 428.946ZM29.4046 311.824C25.3318 311.809 21.4136 310.263 18.4275 307.494C15.4415 304.724 13.606 300.933 13.2853 296.872C12.9645 292.812 14.1821 288.78 16.6962 285.576C19.2104 282.372 22.8373 280.23 26.8572 279.575L137.907 261.774C142.156 261.093 146.501 262.128 149.988 264.651C153.474 267.174 155.815 270.978 156.496 275.227C157.177 279.476 156.143 283.822 153.62 287.308C151.097 290.794 147.292 293.135 143.043 293.817L31.9937 311.618C31.1221 311.757 30.2576 311.824 29.4046 311.824Z" fill="#4F46A3"/>
</svg>
