<svg width="792" height="743" viewBox="0 0 792 743" fill="none" xmlns="http://www.w3.org/2000/svg">
<path d="M761.384 338.007C750.792 318.727 730.263 307.671 705.081 307.671C664.901 307.671 627.172 341.974 593.872 372.241C578.466 386.242 562.689 400.581 549.708 408.353L604.737 147.026C609.996 125.913 606.011 106.157 593.538 91.4244C581.745 77.4921 563.085 69.1744 543.62 69.1744C518.797 69.1744 487.093 83.6984 479.496 123.964L454.066 223.184V101.099C454.066 49.9638 417.648 23.2012 381.664 23.2012C345.704 23.2012 309.273 49.9638 309.273 101.099V227.14L274.749 108.373C266.025 73.1186 236.957 60.5436 212.666 60.5436C191.222 60.5436 170.94 69.65 158.392 84.9048C146.29 99.6376 142.726 118.709 148.221 138.152L172.227 240.945L141.984 185.297C129.3 161.933 108.462 148.546 84.8142 148.546C64.1861 148.546 44.5603 158.963 33.5842 175.761C21.9646 193.521 21.7543 215.597 33.2625 236.78C67.9974 294.192 123.101 393.203 123.101 414.502C123.101 420.638 122.432 429.339 121.665 439.42C118.361 482.736 112.83 555.24 143.345 619.392C171.324 678.16 255.346 719.215 347.671 719.238C455.205 719.238 544.981 664.75 593.959 569.741C615.738 527.503 664.456 472.157 712.444 435.127C733.925 418.573 784.227 379.711 761.384 338.007ZM141.266 414.386C141.266 380.767 63.7035 250.62 48.4458 225.4C24.9716 182.164 89.9743 151.33 114.451 196.398L204.178 359.758L211.788 331.256L165.767 132.955C152.762 86.8654 233.443 60.2651 246.461 112.77L313.505 344.782L326.461 318.205V101.413C326.461 29.0247 425.902 28.7927 425.902 101.169V349.608L446.926 327.625L496.424 127.514C507.907 66.8775 585.829 91.8536 573.9 139.845L517.708 417.831C434.44 415.07 318.245 467.632 331.424 584.404C342.028 476.414 447.706 440.371 519.502 440.371C546.837 440.371 555.994 437.471 610.132 383.087C701.888 290.943 737.7 336.371 736.611 355.895C732.886 422.715 610.961 445.162 555.87 557.932C483.53 705.979 273.066 711.976 185.121 640.83C119.957 588.116 141.266 421.358 141.266 414.386Z" fill="black"/>
</svg>
