<svg width="763" height="742" viewBox="0 0 763 742" fill="none" xmlns="http://www.w3.org/2000/svg">
<path d="M717.971 346.792V161.594C717.971 48.1604 583.051 54.6529 560.126 92.1587C543.614 3.40856 400.837 1.58835 375.301 79.3476C333.133 10.9909 198.571 25.8657 198.571 140.621C160.838 90.0371 32.7733 89.3994 32.7733 201.604C32.7733 201.604 33.7389 245.046 32.7494 259.48C28.3503 323.709 15.0693 388.24 32.8806 516.977C40.8682 574.737 66.1665 619.454 108.036 649.853C182.607 703.996 284.73 694.929 304.997 692.483C348.034 709.809 394.149 718.754 440.728 718.812C491.146 718.812 540.574 708.123 584.243 686.825C657.945 650.885 709.268 587.942 728.76 509.569C747.072 436.006 739.764 385.272 717.971 346.792ZM560.114 118.152C580.727 85.7358 678.259 69.6552 678.259 179.065V300.348C652.401 275.792 570.188 226.206 560.114 219.98V118.152ZM388.272 125.12C388.272 28.9032 526.959 36.8565 526.959 139.392V203.169C498.168 192.224 475.373 198.392 448.024 205.882C431.608 210.392 412.652 215.528 388.272 218.055V125.12ZM218.135 133.085C218.135 41.5636 351.35 53.3428 351.35 156.956V219.528C310.791 213.128 278.841 238.228 268.993 270.459C264.287 286.168 264.357 302.867 269.196 318.538C241.966 309.124 218.147 287.119 218.147 257.173L218.135 133.085ZM52.194 201.291C52.194 117.19 187.627 116.262 187.627 225.487V313.483C187.627 393.608 52.194 408.054 52.194 314.202V201.291ZM646.511 580.476C551.828 687.544 424.574 688.541 298.262 654.606C298.262 654.606 167.49 683.614 100.311 617.553C50.6203 568.685 34.335 468.828 45.9827 367.939C64.0801 394.547 97.6879 410.198 127.254 410.198C154.472 410.198 179.687 399.382 198.273 379.753C212.972 364.194 222.677 343.72 227.171 319.663C242.347 334.142 262.163 343.131 283.323 345.134C305.939 379.904 353.722 388.298 375.36 391.834C330.057 413.294 290.667 458.927 312.353 536.582C310.672 412.807 447.702 380.982 465.752 388.391C486.842 397.063 512.617 436.25 518.757 456.782C521.153 464.77 521.773 489.894 521.773 489.894C521.773 489.894 528.926 463.843 527.448 455.182C522.953 428.633 486.377 379.266 460.626 369.331C443.911 362.884 399.943 377.748 389.011 376.078C288.092 360.763 276.659 297.287 283.633 274.482C290.31 252.674 315.775 235.481 333.872 236.57C390.763 240.246 423.692 231.4 452.173 223.585C485.125 214.531 505.75 207.725 537.748 228.269C552.245 237.579 676.161 315.721 697.501 358.687C732.778 429.699 693.281 527.643 646.511 580.476Z" fill="black"/>
</svg>
