<svg width="792" height="743" viewBox="0 0 792 743" fill="none" xmlns="http://www.w3.org/2000/svg">
<path d="M519.069 74.8008L466.614 276.048L423.044 72.0166C407.712 -7.2504 282.087 17.4473 299.584 92.8513L330.991 242.627C299.077 232.163 245.026 257.58 249.505 304.365C230.634 278.171 141.761 285.746 148.901 362.473C148.901 362.473 156.177 414.757 157.143 432.285C158.863 463.735 156.425 521.564 161.771 558.187C177.585 666.583 283.089 717.138 380.624 719.169C382.666 719.215 384.72 719.238 386.787 719.238C487.168 719.238 596.31 668.462 618.77 553.338C635.017 469.906 604.972 432.332 563.419 403.736L641.464 100.264C660.521 29.5467 538.187 1.14844 519.069 74.8008ZM317.342 82.6312C308.581 40.9966 380.501 33.2589 389.113 75.5316L446.345 356.522C435.591 357.798 414.728 366.51 389.187 367.797L380.03 292.138C378.137 276.129 364.166 257.232 352.077 248.265L317.342 82.6312ZM322.205 264.123C341.286 272.684 348.476 278.554 357.014 368.03C332.005 368.03 311.612 389.641 311.612 415.314C295.909 415.314 286.641 400.21 281.505 384.352C273.994 361.232 268.314 326.557 265.778 307.405C260.692 268.682 302.443 255.248 322.205 264.123ZM244.803 345.664C248.07 357.183 264.75 416.068 259.516 442.273C250.693 486.286 178.909 476.797 173.44 431.462L164.171 357.16C158.9 312.637 229.211 290.572 244.803 345.664ZM562.912 595.204C501.695 690.956 374.016 708.067 288.2 673.833C214.251 644.333 161.078 596.654 173.044 467.888C187.336 488.444 270.406 508.652 290.266 431.392C298.112 435.951 306.724 438.538 315.362 439.315C327.984 470.417 368.534 480.01 381.391 482.365C354.601 496.646 333.057 524.441 346.162 569.753C345.11 494.917 429.862 473.549 442.125 477.748C456.331 482.632 474.484 506.587 478.815 519.464C480.51 524.545 480.869 540.728 480.869 540.728C480.869 540.728 485.856 524.487 485.052 519.012C482.565 502.214 459.548 470.08 442.657 463.839C422.573 456.449 371.257 461.124 352.064 451.89C313.629 433.399 326.585 379.398 358.202 382.588C394.001 386.196 414.233 380.361 431.929 375.663C452.396 370.234 470.339 365.187 488.343 377.844C507.128 391.034 547.963 419.316 560.276 430.731C600.616 468.131 591.298 550.786 562.912 595.204ZM605.789 105.368L535.465 386.219C508.625 370.651 495.756 358.517 484.074 357.798L474.175 312.683L537.024 76.564C547.345 36.9247 618.559 58.5367 605.789 105.368Z" fill="black"/>
</svg>
